<?xml version="1.0" encoding="UTF-8" standalone="no"?>
<!DOCTYPE svg PUBLIC "-//W3C//DTD SVG 1.1//EN"
 "http://www.w3.org/Graphics/SVG/1.1/DTD/svg11.dtd">
<!-- Generated by graphviz version 5.0.0 (20220707.1540)
 -->
<!-- Title: dependencies Pages: 1 -->
<svg width="1864pt" height="247pt"
 viewBox="0.00 0.00 1864.00 246.80" xmlns="http://www.w3.org/2000/svg" xmlns:xlink="http://www.w3.org/1999/xlink">
<g id="graph0" class="graph" transform="scale(1 1) rotate(0) translate(4 242.8)">
<title>dependencies</title>
<polygon fill="white" stroke="transparent" points="-4,4 -4,-242.8 1860,-242.8 1860,4 -4,4"/>
<text text-anchor="middle" x="928" y="-8.2" font-family="sans-serif" font-size="14.00">dependencies</text>
<g id="clust1" class="cluster">
<title>cluster_AppModule</title>
<polygon fill="none" stroke="black" stroke-dasharray="1,5" points="8,-32.8 8,-230.8 1848,-230.8 1848,-32.8 8,-32.8"/>
</g>
<g id="clust14" class="cluster">
<title>cluster_AppModule_providers</title>
<polygon fill="none" stroke="black" points="1511,-40.8 1511,-92.8 1840,-92.8 1840,-40.8 1511,-40.8"/>
</g>
<g id="clust11" class="cluster">
<title>cluster_AppModule_imports</title>
<polygon fill="none" stroke="black" points="1231,-40.8 1231,-92.8 1503,-92.8 1503,-40.8 1231,-40.8"/>
</g>
<g id="clust13" class="cluster">
<title>cluster_AppModule_bootstrap</title>
<polygon fill="none" stroke="black" points="885,-170.8 885,-222.8 1009,-222.8 1009,-170.8 885,-170.8"/>
</g>
<g id="clust2" class="cluster">
<title>cluster_AppModule_declarations</title>
<polygon fill="none" stroke="black" points="16,-40.8 16,-92.8 1223,-92.8 1223,-40.8 16,-40.8"/>
</g>
<!-- AppComponent -->
<g id="node1" class="node">
<title>AppComponent</title>
<polygon fill="#ffffb3" stroke="black" points="1214.94,-84.8 1109.06,-84.8 1109.06,-48.8 1214.94,-48.8 1214.94,-84.8"/>
<text text-anchor="middle" x="1162" y="-62.6" font-family="Times,serif" font-size="14.00">AppComponent</text>
</g>
<!-- AppModule -->
<g id="node9" class="node">
<title>AppModule</title>
<polygon fill="#8dd3c7" stroke="black" points="988.66,-149.8 985.66,-153.8 964.66,-153.8 961.66,-149.8 905.34,-149.8 905.34,-113.8 988.66,-113.8 988.66,-149.8"/>
<text text-anchor="middle" x="947" y="-127.6" font-family="Times,serif" font-size="14.00">AppModule</text>
</g>
<!-- AppComponent&#45;&gt;AppModule -->
<g id="edge1" class="edge">
<title>AppComponent&#45;&gt;AppModule</title>
<path fill="none" stroke="black" d="M1162,-85.04C1162,-100.37 1162,-119.8 1162,-119.8 1162,-119.8 998.71,-119.8 998.71,-119.8"/>
<polygon fill="black" stroke="black" points="998.71,-116.3 988.71,-119.8 998.71,-123.3 998.71,-116.3"/>
</g>
<!-- CalendarComponent -->
<g id="node2" class="node">
<title>CalendarComponent</title>
<polygon fill="#ffffb3" stroke="black" points="1090.86,-84.8 959.14,-84.8 959.14,-48.8 1090.86,-48.8 1090.86,-84.8"/>
<text text-anchor="middle" x="1025" y="-62.6" font-family="Times,serif" font-size="14.00">CalendarComponent</text>
</g>
<!-- CalendarComponent&#45;&gt;AppModule -->
<g id="edge2" class="edge">
<title>CalendarComponent&#45;&gt;AppModule</title>
<path fill="none" stroke="black" d="M973.95,-84.91C973.95,-84.91 973.95,-103.79 973.95,-103.79"/>
<polygon fill="black" stroke="black" points="970.45,-103.79 973.95,-113.79 977.45,-103.79 970.45,-103.79"/>
</g>
<!-- DashboardComponent -->
<g id="node3" class="node">
<title>DashboardComponent</title>
<polygon fill="#ffffb3" stroke="black" points="940.98,-84.8 799.02,-84.8 799.02,-48.8 940.98,-48.8 940.98,-84.8"/>
<text text-anchor="middle" x="870" y="-62.6" font-family="Times,serif" font-size="14.00">DashboardComponent</text>
</g>
<!-- DashboardComponent&#45;&gt;AppModule -->
<g id="edge3" class="edge">
<title>DashboardComponent&#45;&gt;AppModule</title>
<path fill="none" stroke="black" d="M923.08,-84.91C923.08,-84.91 923.08,-103.79 923.08,-103.79"/>
<polygon fill="black" stroke="black" points="919.58,-103.79 923.08,-113.79 926.58,-103.79 919.58,-103.79"/>
</g>
<!-- EmailValidatorDirective -->
<g id="node4" class="node">
<title>EmailValidatorDirective</title>
<polygon fill="#ffffb3" stroke="black" points="781.39,-84.8 626.61,-84.8 626.61,-48.8 781.39,-48.8 781.39,-84.8"/>
<text text-anchor="middle" x="704" y="-62.6" font-family="Times,serif" font-size="14.00">EmailValidatorDirective</text>
</g>
<!-- EmailValidatorDirective&#45;&gt;AppModule -->
<g id="edge4" class="edge">
<title>EmailValidatorDirective&#45;&gt;AppModule</title>
<path fill="none" stroke="black" d="M704,-85.04C704,-100.37 704,-119.8 704,-119.8 704,-119.8 895.23,-119.8 895.23,-119.8"/>
<polygon fill="black" stroke="black" points="895.23,-123.3 905.23,-119.8 895.23,-116.3 895.23,-123.3"/>
</g>
<!-- LoginComponent -->
<g id="node5" class="node">
<title>LoginComponent</title>
<polygon fill="#ffffb3" stroke="black" points="608.27,-84.8 493.73,-84.8 493.73,-48.8 608.27,-48.8 608.27,-84.8"/>
<text text-anchor="middle" x="551" y="-62.6" font-family="Times,serif" font-size="14.00">LoginComponent</text>
</g>
<!-- LoginComponent&#45;&gt;AppModule -->
<g id="edge5" class="edge">
<title>LoginComponent&#45;&gt;AppModule</title>
<path fill="none" stroke="black" d="M551,-84.82C551,-102.17 551,-125.8 551,-125.8 551,-125.8 895,-125.8 895,-125.8"/>
<polygon fill="black" stroke="black" points="895,-129.3 905,-125.8 895,-122.3 895,-129.3"/>
</g>
<!-- PasswordValidatorDirective -->
<g id="node6" class="node">
<title>PasswordValidatorDirective</title>
<polygon fill="#ffffb3" stroke="black" points="475.12,-84.8 300.88,-84.8 300.88,-48.8 475.12,-48.8 475.12,-84.8"/>
<text text-anchor="middle" x="388" y="-62.6" font-family="Times,serif" font-size="14.00">PasswordValidatorDirective</text>
</g>
<!-- PasswordValidatorDirective&#45;&gt;AppModule -->
<g id="edge6" class="edge">
<title>PasswordValidatorDirective&#45;&gt;AppModule</title>
<path fill="none" stroke="black" d="M388,-84.91C388,-104.14 388,-131.8 388,-131.8 388,-131.8 894.98,-131.8 894.98,-131.8"/>
<polygon fill="black" stroke="black" points="894.98,-135.3 904.98,-131.8 894.98,-128.3 894.98,-135.3"/>
</g>
<!-- ProfileComponent -->
<g id="node7" class="node">
<title>ProfileComponent</title>
<polygon fill="#ffffb3" stroke="black" points="282.94,-84.8 163.06,-84.8 163.06,-48.8 282.94,-48.8 282.94,-84.8"/>
<text text-anchor="middle" x="223" y="-62.6" font-family="Times,serif" font-size="14.00">ProfileComponent</text>
</g>
<!-- ProfileComponent&#45;&gt;AppModule -->
<g id="edge7" class="edge">
<title>ProfileComponent&#45;&gt;AppModule</title>
<path fill="none" stroke="black" d="M223,-85.08C223,-106.12 223,-137.8 223,-137.8 223,-137.8 895.21,-137.8 895.21,-137.8"/>
<polygon fill="black" stroke="black" points="895.21,-141.3 905.21,-137.8 895.21,-134.3 895.21,-141.3"/>
</g>
<!-- SignupComponent -->
<g id="node8" class="node">
<title>SignupComponent</title>
<polygon fill="#ffffb3" stroke="black" points="145.51,-84.8 24.49,-84.8 24.49,-48.8 145.51,-48.8 145.51,-84.8"/>
<text text-anchor="middle" x="85" y="-62.6" font-family="Times,serif" font-size="14.00">SignupComponent</text>
</g>
<!-- SignupComponent&#45;&gt;AppModule -->
<g id="edge8" class="edge">
<title>SignupComponent&#45;&gt;AppModule</title>
<path fill="none" stroke="black" d="M85,-85.05C85,-107.82 85,-143.8 85,-143.8 85,-143.8 895.13,-143.8 895.13,-143.8"/>
<polygon fill="black" stroke="black" points="895.13,-147.3 905.13,-143.8 895.13,-140.3 895.13,-147.3"/>
</g>
<!-- AppComponent  -->
<g id="node12" class="node">
<title>AppComponent </title>
<polygon fill="#80b1d3" stroke="black" points="1001.44,-214.8 892.56,-214.8 892.56,-178.8 1001.44,-178.8 1001.44,-214.8"/>
<text text-anchor="middle" x="947" y="-192.6" font-family="Times,serif" font-size="14.00">AppComponent </text>
</g>
<!-- AppModule&#45;&gt;AppComponent  -->
<g id="edge11" class="edge">
<title>AppModule&#45;&gt;AppComponent </title>
<path fill="none" stroke="black" stroke-dasharray="1,5" d="M947,-149.91C947,-149.91 947,-168.79 947,-168.79"/>
<polygon fill="black" stroke="black" points="943.5,-168.79 947,-178.79 950.5,-168.79 943.5,-168.79"/>
</g>
<!-- AppRoutingModule -->
<g id="node10" class="node">
<title>AppRoutingModule</title>
<polygon fill="#8dd3c7" stroke="black" points="1495.28,-84.8 1492.28,-88.8 1471.28,-88.8 1468.28,-84.8 1366.72,-84.8 1366.72,-48.8 1495.28,-48.8 1495.28,-84.8"/>
<text text-anchor="middle" x="1431" y="-62.6" font-family="Times,serif" font-size="14.00">AppRoutingModule</text>
</g>
<!-- AppRoutingModule&#45;&gt;AppModule -->
<g id="edge9" class="edge">
<title>AppRoutingModule&#45;&gt;AppModule</title>
<path fill="none" stroke="black" d="M1431,-84.91C1431,-104.14 1431,-131.8 1431,-131.8 1431,-131.8 998.68,-131.8 998.68,-131.8"/>
<polygon fill="black" stroke="black" points="998.68,-128.3 988.68,-131.8 998.68,-135.3 998.68,-128.3"/>
</g>
<!-- CalendarModule -->
<g id="node11" class="node">
<title>CalendarModule</title>
<polygon fill="#8dd3c7" stroke="black" points="1349.08,-84.8 1346.08,-88.8 1325.08,-88.8 1322.08,-84.8 1238.92,-84.8 1238.92,-48.8 1349.08,-48.8 1349.08,-84.8"/>
<text text-anchor="middle" x="1294" y="-62.6" font-family="Times,serif" font-size="14.00">CalendarModule</text>
</g>
<!-- CalendarModule&#45;&gt;AppModule -->
<g id="edge10" class="edge">
<title>CalendarModule&#45;&gt;AppModule</title>
<path fill="none" stroke="black" d="M1294,-84.82C1294,-102.17 1294,-125.8 1294,-125.8 1294,-125.8 998.86,-125.8 998.86,-125.8"/>
<polygon fill="black" stroke="black" points="998.86,-122.3 988.86,-125.8 998.86,-129.3 998.86,-122.3"/>
</g>
<!-- EmployeeService -->
<g id="node13" class="node">
<title>EmployeeService</title>
<ellipse fill="#fdb462" stroke="black" cx="1753" cy="-66.8" rx="79.29" ry="18"/>
<text text-anchor="middle" x="1753" y="-62.6" font-family="Times,serif" font-size="14.00">EmployeeService</text>
</g>
<!-- EmployeeService&#45;&gt;AppModule -->
<g id="edge12" class="edge">
<title>EmployeeService&#45;&gt;AppModule</title>
<path fill="none" stroke="black" d="M1753,-85.05C1753,-107.82 1753,-143.8 1753,-143.8 1753,-143.8 998.92,-143.8 998.92,-143.8"/>
<polygon fill="black" stroke="black" points="998.92,-140.3 988.92,-143.8 998.92,-147.3 998.92,-140.3"/>
</g>
<!-- UploadService -->
<g id="node14" class="node">
<title>UploadService</title>
<ellipse fill="#fdb462" stroke="black" cx="1587" cy="-66.8" rx="68.34" ry="18"/>
<text text-anchor="middle" x="1587" y="-62.6" font-family="Times,serif" font-size="14.00">UploadService</text>
</g>
<!-- UploadService&#45;&gt;AppModule -->
<g id="edge13" class="edge">
<title>UploadService&#45;&gt;AppModule</title>
<path fill="none" stroke="black" d="M1587,-85.08C1587,-106.12 1587,-137.8 1587,-137.8 1587,-137.8 998.99,-137.8 998.99,-137.8"/>
<polygon fill="black" stroke="black" points="998.99,-134.3 988.99,-137.8 998.99,-141.3 998.99,-134.3"/>
</g>
</g>
</svg>
