<?xml version="1.0" encoding="UTF-8" standalone="no"?>
<!DOCTYPE svg PUBLIC "-//W3C//DTD SVG 1.1//EN"
 "http://www.w3.org/Graphics/SVG/1.1/DTD/svg11.dtd">
<!-- Generated by graphviz version 5.0.0 (20220707.1540)
 -->
<!-- Title: dependencies Pages: 1 -->
<svg width="1864pt" height="247pt"
 viewBox="0.00 0.00 1864.00 246.80" xmlns="http://www.w3.org/2000/svg" xmlns:xlink="http://www.w3.org/1999/xlink">
<g id="graph0" class="graph" transform="scale(1 1) rotate(0) translate(4 242.8)">
<title>dependencies</title>
<polygon fill="white" stroke="transparent" points="-4,4 -4,-242.8 1860,-242.8 1860,4 -4,4"/>
<text text-anchor="middle" x="928" y="-8.2" font-family="sans-serif" font-size="14.00">dependencies</text>
<g id="clust1" class="cluster">
<title>cluster_AppModule</title>
<polygon fill="none" stroke="black" stroke-dasharray="1,5" points="8,-32.8 8,-230.8 1848,-230.8 1848,-32.8 8,-32.8"/>
</g>
<g id="clust2" class="cluster">
<title>cluster_AppModule_declarations</title>
<polygon fill="none" stroke="black" points="633,-40.8 633,-92.8 1840,-92.8 1840,-40.8 633,-40.8"/>
</g>
<g id="clust11" class="cluster">
<title>cluster_AppModule_imports</title>
<polygon fill="none" stroke="black" points="353,-40.8 353,-92.8 625,-92.8 625,-40.8 353,-40.8"/>
</g>
<g id="clust13" class="cluster">
<title>cluster_AppModule_bootstrap</title>
<polygon fill="none" stroke="black" points="860,-170.8 860,-222.8 984,-222.8 984,-170.8 860,-170.8"/>
</g>
<g id="clust14" class="cluster">
<title>cluster_AppModule_providers</title>
<polygon fill="none" stroke="black" points="16,-40.8 16,-92.8 345,-92.8 345,-40.8 16,-40.8"/>
</g>
<!-- AppComponent -->
<g id="node1" class="node">
<title>AppComponent</title>
<polygon fill="#ffffb3" stroke="black" points="1831.94,-84.8 1726.06,-84.8 1726.06,-48.8 1831.94,-48.8 1831.94,-84.8"/>
<text text-anchor="middle" x="1779" y="-62.6" font-family="Times,serif" font-size="14.00">AppComponent</text>
</g>
<!-- AppModule -->
<g id="node9" class="node">
<title>AppModule</title>
<polygon fill="#8dd3c7" stroke="black" points="963.66,-149.8 960.66,-153.8 939.66,-153.8 936.66,-149.8 880.34,-149.8 880.34,-113.8 963.66,-113.8 963.66,-149.8"/>
<text text-anchor="middle" x="922" y="-127.6" font-family="Times,serif" font-size="14.00">AppModule</text>
</g>
<!-- AppComponent&#45;&gt;AppModule -->
<g id="edge1" class="edge">
<title>AppComponent&#45;&gt;AppModule</title>
<path fill="none" stroke="black" d="M1779,-85.05C1779,-107.82 1779,-143.8 1779,-143.8 1779,-143.8 973.92,-143.8 973.92,-143.8"/>
<polygon fill="black" stroke="black" points="973.92,-140.3 963.92,-143.8 973.91,-147.3 973.92,-140.3"/>
</g>
<!-- CalendarComponent -->
<g id="node2" class="node">
<title>CalendarComponent</title>
<polygon fill="#ffffb3" stroke="black" points="1707.86,-84.8 1576.14,-84.8 1576.14,-48.8 1707.86,-48.8 1707.86,-84.8"/>
<text text-anchor="middle" x="1642" y="-62.6" font-family="Times,serif" font-size="14.00">CalendarComponent</text>
</g>
<!-- CalendarComponent&#45;&gt;AppModule -->
<g id="edge2" class="edge">
<title>CalendarComponent&#45;&gt;AppModule</title>
<path fill="none" stroke="black" d="M1642,-85.08C1642,-106.12 1642,-137.8 1642,-137.8 1642,-137.8 973.82,-137.8 973.82,-137.8"/>
<polygon fill="black" stroke="black" points="973.82,-134.3 963.82,-137.8 973.82,-141.3 973.82,-134.3"/>
</g>
<!-- DashboardComponent -->
<g id="node3" class="node">
<title>DashboardComponent</title>
<polygon fill="#ffffb3" stroke="black" points="1557.98,-84.8 1416.02,-84.8 1416.02,-48.8 1557.98,-48.8 1557.98,-84.8"/>
<text text-anchor="middle" x="1487" y="-62.6" font-family="Times,serif" font-size="14.00">DashboardComponent</text>
</g>
<!-- DashboardComponent&#45;&gt;AppModule -->
<g id="edge3" class="edge">
<title>DashboardComponent&#45;&gt;AppModule</title>
<path fill="none" stroke="black" d="M1487,-84.91C1487,-104.14 1487,-131.8 1487,-131.8 1487,-131.8 974.01,-131.8 974.01,-131.8"/>
<polygon fill="black" stroke="black" points="974.01,-128.3 964.01,-131.8 974.01,-135.3 974.01,-128.3"/>
</g>
<!-- EmailValidatorDirective -->
<g id="node4" class="node">
<title>EmailValidatorDirective</title>
<polygon fill="#ffffb3" stroke="black" points="1398.39,-84.8 1243.61,-84.8 1243.61,-48.8 1398.39,-48.8 1398.39,-84.8"/>
<text text-anchor="middle" x="1321" y="-62.6" font-family="Times,serif" font-size="14.00">EmailValidatorDirective</text>
</g>
<!-- EmailValidatorDirective&#45;&gt;AppModule -->
<g id="edge4" class="edge">
<title>EmailValidatorDirective&#45;&gt;AppModule</title>
<path fill="none" stroke="black" d="M1321,-84.82C1321,-102.17 1321,-125.8 1321,-125.8 1321,-125.8 973.95,-125.8 973.95,-125.8"/>
<polygon fill="black" stroke="black" points="973.95,-122.3 963.95,-125.8 973.95,-129.3 973.95,-122.3"/>
</g>
<!-- LoginComponent -->
<g id="node5" class="node">
<title>LoginComponent</title>
<polygon fill="#ffffb3" stroke="black" points="1225.27,-84.8 1110.73,-84.8 1110.73,-48.8 1225.27,-48.8 1225.27,-84.8"/>
<text text-anchor="middle" x="1168" y="-62.6" font-family="Times,serif" font-size="14.00">LoginComponent</text>
</g>
<!-- LoginComponent&#45;&gt;AppModule -->
<g id="edge5" class="edge">
<title>LoginComponent&#45;&gt;AppModule</title>
<path fill="none" stroke="black" d="M1168,-85.04C1168,-100.37 1168,-119.8 1168,-119.8 1168,-119.8 973.73,-119.8 973.73,-119.8"/>
<polygon fill="black" stroke="black" points="973.73,-116.3 963.73,-119.8 973.73,-123.3 973.73,-116.3"/>
</g>
<!-- PasswordValidatorDirective -->
<g id="node6" class="node">
<title>PasswordValidatorDirective</title>
<polygon fill="#ffffb3" stroke="black" points="1092.12,-84.8 917.88,-84.8 917.88,-48.8 1092.12,-48.8 1092.12,-84.8"/>
<text text-anchor="middle" x="1005" y="-62.6" font-family="Times,serif" font-size="14.00">PasswordValidatorDirective</text>
</g>
<!-- PasswordValidatorDirective&#45;&gt;AppModule -->
<g id="edge6" class="edge">
<title>PasswordValidatorDirective&#45;&gt;AppModule</title>
<path fill="none" stroke="black" d="M940.76,-84.91C940.76,-84.91 940.76,-103.79 940.76,-103.79"/>
<polygon fill="black" stroke="black" points="937.26,-103.79 940.76,-113.79 944.26,-103.79 937.26,-103.79"/>
</g>
<!-- ProfileComponent -->
<g id="node7" class="node">
<title>ProfileComponent</title>
<polygon fill="#ffffb3" stroke="black" points="899.94,-84.8 780.06,-84.8 780.06,-48.8 899.94,-48.8 899.94,-84.8"/>
<text text-anchor="middle" x="840" y="-62.6" font-family="Times,serif" font-size="14.00">ProfileComponent</text>
</g>
<!-- ProfileComponent&#45;&gt;AppModule -->
<g id="edge7" class="edge">
<title>ProfileComponent&#45;&gt;AppModule</title>
<path fill="none" stroke="black" d="M889.94,-84.91C889.94,-84.91 889.94,-103.79 889.94,-103.79"/>
<polygon fill="black" stroke="black" points="886.44,-103.79 889.94,-113.79 893.44,-103.79 886.44,-103.79"/>
</g>
<!-- SignupComponent -->
<g id="node8" class="node">
<title>SignupComponent</title>
<polygon fill="#ffffb3" stroke="black" points="762.51,-84.8 641.49,-84.8 641.49,-48.8 762.51,-48.8 762.51,-84.8"/>
<text text-anchor="middle" x="702" y="-62.6" font-family="Times,serif" font-size="14.00">SignupComponent</text>
</g>
<!-- SignupComponent&#45;&gt;AppModule -->
<g id="edge8" class="edge">
<title>SignupComponent&#45;&gt;AppModule</title>
<path fill="none" stroke="black" d="M702,-85.04C702,-100.37 702,-119.8 702,-119.8 702,-119.8 870.1,-119.8 870.1,-119.8"/>
<polygon fill="black" stroke="black" points="870.1,-123.3 880.1,-119.8 870.1,-116.3 870.1,-123.3"/>
</g>
<!-- AppComponent  -->
<g id="node12" class="node">
<title>AppComponent </title>
<polygon fill="#80b1d3" stroke="black" points="976.44,-214.8 867.56,-214.8 867.56,-178.8 976.44,-178.8 976.44,-214.8"/>
<text text-anchor="middle" x="922" y="-192.6" font-family="Times,serif" font-size="14.00">AppComponent </text>
</g>
<!-- AppModule&#45;&gt;AppComponent  -->
<g id="edge11" class="edge">
<title>AppModule&#45;&gt;AppComponent </title>
<path fill="none" stroke="black" stroke-dasharray="1,5" d="M922,-149.91C922,-149.91 922,-168.79 922,-168.79"/>
<polygon fill="black" stroke="black" points="918.5,-168.79 922,-178.79 925.5,-168.79 918.5,-168.79"/>
</g>
<!-- AppRoutingModule -->
<g id="node10" class="node">
<title>AppRoutingModule</title>
<polygon fill="#8dd3c7" stroke="black" points="617.28,-84.8 614.28,-88.8 593.28,-88.8 590.28,-84.8 488.72,-84.8 488.72,-48.8 617.28,-48.8 617.28,-84.8"/>
<text text-anchor="middle" x="553" y="-62.6" font-family="Times,serif" font-size="14.00">AppRoutingModule</text>
</g>
<!-- AppRoutingModule&#45;&gt;AppModule -->
<g id="edge9" class="edge">
<title>AppRoutingModule&#45;&gt;AppModule</title>
<path fill="none" stroke="black" d="M553,-84.82C553,-102.17 553,-125.8 553,-125.8 553,-125.8 870.03,-125.8 870.03,-125.8"/>
<polygon fill="black" stroke="black" points="870.03,-129.3 880.03,-125.8 870.03,-122.3 870.03,-129.3"/>
</g>
<!-- CalendarModule -->
<g id="node11" class="node">
<title>CalendarModule</title>
<polygon fill="#8dd3c7" stroke="black" points="471.08,-84.8 468.08,-88.8 447.08,-88.8 444.08,-84.8 360.92,-84.8 360.92,-48.8 471.08,-48.8 471.08,-84.8"/>
<text text-anchor="middle" x="416" y="-62.6" font-family="Times,serif" font-size="14.00">CalendarModule</text>
</g>
<!-- CalendarModule&#45;&gt;AppModule -->
<g id="edge10" class="edge">
<title>CalendarModule&#45;&gt;AppModule</title>
<path fill="none" stroke="black" d="M416,-84.91C416,-104.14 416,-131.8 416,-131.8 416,-131.8 870.16,-131.8 870.16,-131.8"/>
<polygon fill="black" stroke="black" points="870.16,-135.3 880.16,-131.8 870.16,-128.3 870.16,-135.3"/>
</g>
<!-- EmployeeService -->
<g id="node13" class="node">
<title>EmployeeService</title>
<ellipse fill="#fdb462" stroke="black" cx="258" cy="-66.8" rx="79.29" ry="18"/>
<text text-anchor="middle" x="258" y="-62.6" font-family="Times,serif" font-size="14.00">EmployeeService</text>
</g>
<!-- EmployeeService&#45;&gt;AppModule -->
<g id="edge12" class="edge">
<title>EmployeeService&#45;&gt;AppModule</title>
<path fill="none" stroke="black" d="M258,-85.08C258,-106.12 258,-137.8 258,-137.8 258,-137.8 870.21,-137.8 870.21,-137.8"/>
<polygon fill="black" stroke="black" points="870.21,-141.3 880.21,-137.8 870.21,-134.3 870.21,-141.3"/>
</g>
<!-- UploadService -->
<g id="node14" class="node">
<title>UploadService</title>
<ellipse fill="#fdb462" stroke="black" cx="92" cy="-66.8" rx="68.34" ry="18"/>
<text text-anchor="middle" x="92" y="-62.6" font-family="Times,serif" font-size="14.00">UploadService</text>
</g>
<!-- UploadService&#45;&gt;AppModule -->
<g id="edge13" class="edge">
<title>UploadService&#45;&gt;AppModule</title>
<path fill="none" stroke="black" d="M92,-85.05C92,-107.82 92,-143.8 92,-143.8 92,-143.8 870.27,-143.8 870.27,-143.8"/>
<polygon fill="black" stroke="black" points="870.27,-147.3 880.27,-143.8 870.27,-140.3 870.27,-147.3"/>
</g>
</g>
</svg>
